<svg xmlns="http://www.w3.org/2000/svg" viewBox="0 0 638.12 104.09"><rect x="0" y="4" width="39.5508" height="24.1699" fill="#14130f"/><rect x="0" y="32.5645" width="70.3125" height="13.1836" fill="#f2b135"/><rect x="30.7617" y="50.1426" width="39.5508" height="24.1699" fill="#14130f"/><g transform="translate(94.3125 74.3125)"><path fill="#14130f" d="M7.718402147293091 0.0V-70.3125H35.00444293022156Q47.34935164451599 -70.3125 53.53879928588867 -65.21641612052917Q59.72824692726135 -60.12033224105835 59.72824692726135 -50.36138296127319Q59.72824692726135 -40.77548384666443 53.444480895996094 -35.596585273742676Q47.160714864730835 -30.417686700820923 34.41271185874939 -30.417686700820923H18.2142436504364V0.0ZM18.2142436504364 -38.86125683784485H34.75213646888733Q41.760820150375366 -38.86125683784485 45.43235003948212 -41.89898669719696Q49.10387992858887 -44.93671655654907 49.10387992858887 -50.2371609210968Q49.10387992858887 -55.040717124938965 45.76947093009949 -58.45482349395752Q42.43506193161011 -61.868929862976074 34.685349464416504 -61.868929862976074H18.2142436504364Z M69.70668339729309 0.0V-52.734375H79.14314770698547V-41.3672149181366L78.76855039596558 -42.71095395088196Q81.1568250656128 -48.291015625 85.82050406932831 -51.11347436904907Q90.48418307304382 -53.935933113098145 95.46658301353455 -53.935933113098145Q96.91228175163269 -53.935933113098145 98.31442141532898 -53.691792488098145Q99.71656107902527 -53.447651863098145 100.98490619659424 -52.861714363098145L99.9032666683197 -43.87049674987793Q97.08414578437805 -44.715416431427 94.36579847335815 -44.715416431427Q92.50528120994568 -44.715416431427 90.002357006073 -44.011712074279785Q87.49943280220032 -43.30800771713257 85.13438606262207 -41.300785541534424Q82.76933932304382 -39.29356336593628 81.20038414001465 -35.42441725730896Q79.63142895698547 -31.55527114868164 79.63142895698547 -25.23180842399597V0.0Z M132.70807349359666 1.2015581130981445Q125.13885258983922 1.2015581130981445 119.36234190012958 -2.294998775501395Q113.58583121041994 -5.791555664100935 110.34899332394471 -12.002223144550467Q107.11215543746948 -18.212890625 107.11215543746948 -26.370897889137268Q107.11215543746948 -34.528905153274536 110.34885805543759 -40.73719873236168Q113.5855606734057 -46.94549231144883 119.36182996085645 -50.44071271227349Q125.13809924830723 -53.935933113098145 132.7070038318634 -53.935933113098145Q140.28471517562866 -53.935933113098145 146.0600893497467 -50.44101178646088Q151.83546352386475 -46.94609045982361 155.07607865333557 -40.73850743624629Q158.3166937828064 -34.530924412668966 158.3166937828064 -26.36819712969722Q158.3166937828064 -18.205469846725464 155.07757510862297 -11.997176267638315Q151.83845643443956 -5.7888826885511655 146.05787541589683 -2.2936622877265105Q140.27729439735413 1.2015581130981445 132.70807349359666 1.2015581130981445ZM132.71534644594846 -6.688129901885986Q139.63599014282227 -6.688129901885986 143.6381857395172 -11.979197274963811Q147.64038133621216 -17.270264648041636 147.64038133621216 -26.3671875Q147.64038133621216 -35.50397753715515 143.6372639037067 -40.77511131763458Q139.63414647120126 -46.046245098114014 132.71350277432742 -46.046245098114014Q125.79285907745361 -46.046245098114014 121.79066348075867 -40.77511131763458Q117.78846788406372 -35.50397753715515 117.78846788406372 -26.3671875Q117.78846788406372 -17.264384031295776 121.79158531656917 -11.976256966590881Q125.79470274907462 -6.688129901885986 132.71534644594846 -6.688129901885986Z M169.4156677722931 0.0V-52.734375H178.85213208198547V-43.84958744049072Q180.8337540626526 -48.08472394943237 185.0712628364563 -51.01032853126526Q189.30877161026 -53.935933113098145 195.09824228286743 -53.935933113098145Q200.3970594406128 -53.935933113098145 204.25663304328918 -51.116591691970825Q208.11620664596558 -48.297250270843506 210.0056619644165 -43.08006167411804Q212.62204957008362 -48.08472394943237 216.9804425239563 -51.01032853126526Q221.33883547782898 -53.935933113098145 226.9224555492401 -53.935933113098145Q234.60212659835815 -53.935933113098145 238.9802576303482 -48.401954770088196Q243.35838866233826 -42.86797642707825 243.35838866233826 -32.92113542556763V0.0H233.43364310264587V-32.501572370529175Q233.43364310264587 -36.58561706542969 232.5949580669403 -39.606353640556335Q231.75627303123474 -42.62709021568298 229.79550671577454 -44.29956376552582Q227.83474040031433 -45.97203731536865 224.39525437355042 -45.97203731536865Q220.56944680213928 -45.97203731536865 217.6123799085617 -43.72379183769226Q214.65531301498413 -41.47554636001587 213.002357006073 -37.26712763309479Q211.34940099716187 -33.058708906173706 211.34940099716187 -27.150064706802368V0.0H201.42465543746948V-32.501572370529175Q201.42465543746948 -36.58561706542969 200.58597040176392 -39.6100640296936Q199.74728536605835 -42.63451099395752 197.8035123348236 -44.303274154663086Q195.85973930358887 -45.97203731536865 192.46908140182495 -45.97203731536865Q188.64327383041382 -45.97203731536865 185.6655032634735 -43.74820590019226Q182.6877326965332 -41.52437448501587 181.01407301425934 -37.31224536895752Q179.34041333198547 -33.10011625289917 179.34041333198547 -27.142643928527832V0.0Z M279.09674536859666 1.2015581130981445Q271.5275244648392 1.2015581130981445 265.75101377512954 -2.294998775501395Q259.97450308541994 -5.791555664100935 256.7376651989447 -12.002223144550467Q253.50082731246948 -18.212890625 253.50082731246948 -26.370897889137268Q253.50082731246948 -34.528905153274536 256.7375299304376 -40.73719873236168Q259.97423254840567 -46.94549231144883 265.7505018358564 -50.44071271227349Q271.52677112330724 -53.935933113098145 279.0956757068634 -53.935933113098145Q286.67338705062866 -53.935933113098145 292.4487612247467 -50.44101178646088Q298.22413539886475 -46.94609045982361 301.46475052833557 -40.73850743624629Q304.7053656578064 -34.530924412668966 304.7053656578064 -26.36819712969722Q304.7053656578064 -18.205469846725464 301.46624698362297 -11.997176267638315Q298.22712830943954 -5.7888826885511655 292.44654729089683 -2.2936622877265105Q286.6659662723541 1.2015581130981445 279.09674536859666 1.2015581130981445ZM279.10401832094846 -6.688129901885986Q286.02466201782227 -6.688129901885986 290.0268576145172 -11.979197274963811Q294.02905321121216 -17.270264648041636 294.02905321121216 -26.3671875Q294.02905321121216 -35.50397753715515 290.0259357787067 -40.77511131763458Q286.02281834620123 -46.046245098114014 279.1021746493274 -46.046245098114014Q272.1815309524536 -46.046245098114014 268.17933535575867 -40.77511131763458Q264.1771397590637 -35.50397753715515 264.1771397590637 -26.3671875Q264.1771397590637 -17.264384031295776 268.1802571915692 -11.976256966590881Q272.18337462407464 -6.688129901885986 279.10401832094846 -6.688129901885986Z M315.8043396472931 0.0V-52.734375H325.2408039569855V-41.3672149181366L324.8662066459656 -42.71095395088196Q327.2544813156128 -48.291015625 331.9181603193283 -51.11347436904907Q336.5818393230438 -53.935933113098145 341.56423926353455 -53.935933113098145Q343.0099380016327 -53.935933113098145 344.412077665329 -53.691792488098145Q345.81421732902527 -53.447651863098145 347.08256244659424 -52.861714363098145L346.0009229183197 -43.87049674987793Q343.18180203437805 -44.715416431427 340.46345472335815 -44.715416431427Q338.6029374599457 -44.715416431427 336.100013256073 -44.011712074279785Q333.5970890522003 -43.30800771713257 331.23204231262207 -41.300785541534424Q328.8669955730438 -39.29356336593628 327.29804039001465 -35.42441725730896Q325.7290852069855 -31.55527114868164 325.7290852069855 -25.23180842399597V0.0Z M356.45473027229315 19.04296875V-52.734375H365.81698679924017V-41.85935854911804L365.5951085090638 -42.633187770843506Q367.89938235282904 -48.40232729911804 372.7648290395737 -51.16913020610809Q377.6302757263184 -53.935933113098145 383.2603516578675 -53.935933113098145Q389.7650303840638 -53.935933113098145 394.64042210578924 -50.585344433784485Q399.5158138275147 -47.234755754470825 402.22421610355383 -41.02987349033356Q404.93261837959295 -34.82499122619629 404.93261837959295 -26.303517818450928Q404.93261837959295 -17.79688596725464 402.19980204105383 -11.620128154754639Q399.4669857025147 -5.443370342254639 394.57675242424017 -2.120906114578247Q389.68651914596563 1.2015581130981445 383.19356465339666 1.2015581130981445Q377.8396847248078 1.2015581130981445 372.902554512024 -1.419726014137268Q367.96542429924017 -4.041010141372681 365.31074666976934 -10.178512334823608L366.2138464450837 -10.494929552078247V19.04296875ZM380.1534476280213 -6.769758462905884Q386.36248135566717 -6.769758462905884 390.28342092037207 -11.909249424934387Q394.20436048507696 -17.04874038696289 394.20436048507696 -26.528513431549072Q394.20436048507696 -35.75984239578247 390.415063738823 -40.86593985557556Q386.625766992569 -45.97203731536865 380.2511038780213 -45.97203731536865Q376.3499023914338 -45.97203731536865 373.104170203209 -43.916359543800354Q369.8584380149842 -41.860681772232056 367.93752038478857 -37.553420662879944Q366.01660275459295 -33.24615955352783 366.01660275459295 -26.498830318450928Q366.01660275459295 -16.519051790237427 370.1476963758469 -11.644405126571655Q374.2787899971009 -6.769758462905884 380.1534476280213 -6.769758462905884Z M415.51332402229315 0.0V-73.2421875H425.43806958198553V-40.339452028274536L424.600570678711 -42.49531030654907Q426.7404012680054 -47.55310416221619 431.2613062858582 -50.744518637657166Q435.782211303711 -53.935933113098145 442.2923796176911 -53.935933113098145Q448.0072014331818 -53.935933113098145 452.0058386325837 -51.36407017707825Q456.00447583198553 -48.79220724105835 458.12011289596563 -44.092610478401184Q460.23574995994574 -39.39301371574402 460.23574995994574 -32.91371464729309V0.0H450.3184251785279V-31.98953866958618Q450.3184251785279 -38.61962556838989 448.01897931098944 -42.29583144187927Q445.719533443451 -45.97203731536865 439.7757165431977 -45.97203731536865Q433.24403095245367 -45.97203731536865 429.3410502672196 -41.25463366508484Q425.43806958198553 -36.537230014801025 425.43806958198553 -27.061015367507935V0.0Z M472.22816777229315 0.0V-52.734375H482.15291333198553V0.0ZM477.19054055213934 -60.88213324546814Q473.9429457187653 -60.88213324546814 471.770314693451 -63.05476427078247Q469.59768366813665 -65.2273952960968 469.59768366813665 -68.47499012947083Q469.59768366813665 -71.76399230957031 471.770314693451 -73.91591966152191Q473.9429457187653 -76.06784701347351 477.19054055213934 -76.06784701347351Q480.4795427322388 -76.06784701347351 482.6314700841904 -73.91591966152191Q484.783397436142 -71.76399230957031 484.783397436142 -68.47499012947083Q484.783397436142 -65.2273952960968 482.6314700841904 -63.05476427078247Q480.4795427322388 -60.88213324546814 477.19054055213934 -60.88213324546814Z M518.3229777812959 1.2015581130981445Q510.6562170982362 1.2015581130981445 505.0619069337846 -2.1675825119018555Q499.467596769333 -5.5367231369018555 496.44143915176403 -11.72461211681366Q493.41528153419506 -17.912501096725464 493.41528153419506 -26.374608278274536Q493.41528153419506 -34.844136238098145 496.43772876262676 -41.02460443973541Q499.46017599105846 -47.20507264137268 505.0507757663728 -50.57050287723541Q510.6413755416871 -53.935933113098145 518.3007154464723 -53.935933113098145Q524.0464065074922 -53.935933113098145 528.692278623581 -51.842185854911804Q533.3381507396699 -49.748438596725464 536.5760210752488 -45.77384293079376Q539.8138914108278 -41.79924726486206 541.2342104911805 -36.11529469490051L531.4078662395478 -33.71766805648804Q530.1297280788423 -39.72901701927185 526.7826292514802 -42.88763105869293Q523.4355304241182 -46.046245098114014 518.2858738899232 -46.046245098114014Q511.3741014003755 -46.046245098114014 507.7328476905824 -40.84367752075195Q504.0915939807893 -35.64110994338989 504.0915939807893 -26.33008360862732Q504.0915939807893 -16.98507070541382 507.7291373014451 -11.836600303649902Q511.36668062210094 -6.688129901885986 518.2932946681977 -6.688129901885986Q523.3718607425691 -6.688129901885986 526.705676674843 -9.697142243385315Q530.0394926071168 -12.706154584884644 531.4258251190187 -18.523377180099487L541.0994503498079 -16.142523288726807Q539.9721000194551 -11.923414468765259 537.8322694301606 -8.701944351196289Q535.6924388408662 -5.480474233627319 532.7401164770127 -3.272077441215515Q529.7877941131593 -1.063680648803711 526.1438641548158 0.0689387321472168Q522.4999341964723 1.2015581130981445 518.3229777812959 1.2015581130981445Z"/></g></svg>
